<?xml version="1.0" encoding="utf-8"?>
<!-- Generator: Adobe Illustrator 16.0.0, SVG Export Plug-In . SVG Version: 6.00 Build 0)  -->
<!DOCTYPE svg PUBLIC "-//W3C//DTD SVG 1.1//EN" "http://www.w3.org/Graphics/SVG/1.1/DTD/svg11.dtd">
<svg version="1.1" id="Layer_1" xmlns="http://www.w3.org/2000/svg" xmlns:xlink="http://www.w3.org/1999/xlink" x="0px" y="0px"
	 width="841.34px" height="222.687px" viewBox="74.931 403.853 841.34 222.687"
	 enable-background="new 74.931 403.853 841.34 222.687" xml:space="preserve">
<path fill="#003871" stroke="#FFFFFF" stroke-width="6.9999" stroke-miterlimit="2.6131" d="M113.726,407.353
	c-15.687,0-35.294,13.072-35.294,36.111v179.575h404.412l61.438-215.687H113.726L113.726,407.353z"/>
<path fill="#ED2128" d="M544.281,407.353l-61.438,215.687h308.66c30.72,0,49.184-0.98,62.582-41.177l57.353-174.51H544.281
	L544.281,407.353z"/>
<path fill="none" stroke="#FFFFFF" stroke-width="6.9999" stroke-miterlimit="2.6131" d="M544.281,407.353l-61.438,215.687h308.66
	c30.72,0,49.184-0.98,62.582-41.177l57.353-174.51H544.281L544.281,407.353z"/>
<path fill="#FFFFFF" d="M112.909,449.183c0-8.66,4.412-13.235,13.398-13.562h80.392v21.731h-67.811v26.961h50.49v8.334
	c0.164,8.66-4.412,12.908-13.725,12.908h-36.765v32.517h67.484v23.039h-93.464V449.183z"/>
<path fill="none" stroke="#FFFFFF" stroke-width="6.9999" stroke-miterlimit="2.6131" d="M112.909,449.183
	c0-8.66,4.412-13.235,13.398-13.562h80.392v21.731h-67.811v26.961h50.49v8.334c0.164,8.66-4.412,12.908-13.725,12.908h-36.765
	v32.517h67.484v23.039h-93.464V449.183z"/>
<path fill="#FFFFFF" d="M276.961,519.607v-8.986c-5.882,2.451-12.745,4.411-20.098,5.882c-9.967,1.798-15.196,6.536-15.196,13.726
	c0.49,7.68,4.739,11.438,12.745,11.438C268.301,541.667,276.961,533.497,276.961,519.607L276.961,519.607z M245.098,487.582h-25.164
	c3.104-18.138,16.177-26.961,39.216-26.961c27.614,0,41.667,8.823,42.32,26.961v33.17c0,26.961-16.667,39.052-43.791,40.85
	c-24.02,1.797-40.686-8.987-40.686-30.719c0.49-23.53,17.974-29.739,43.464-32.19c10.784-1.307,16.34-4.411,16.34-9.804
	c-0.49-5.556-5.882-8.333-16.34-8.333C251.307,480.719,246.405,482.843,245.098,487.582z"/>
<path fill="none" stroke="#FFFFFF" stroke-width="6.9999" stroke-miterlimit="2.6131" d="M276.961,519.607v-8.986
	c-5.882,2.451-12.745,4.411-20.098,5.882c-9.967,1.798-15.196,6.536-15.196,13.726c0.49,7.68,4.739,11.438,12.745,11.438
	C268.301,541.667,276.961,533.497,276.961,519.607L276.961,519.607z M245.098,487.582h-25.164
	c3.104-18.138,16.177-26.961,39.216-26.961c27.614,0,41.667,8.823,42.32,26.961v33.17c0,26.961-16.667,39.052-43.791,40.85
	c-24.02,1.797-40.686-8.987-40.686-30.719c0.49-23.53,17.974-29.739,43.464-32.19c10.784-1.307,16.34-4.411,16.34-9.804
	c-0.49-5.556-5.882-8.333-16.34-8.333C251.307,480.719,246.405,482.843,245.098,487.582z"/>
<path fill="#FFFFFF" d="M356.862,542.157c10.621,0,16.014-2.941,16.014-9.314c0-5.065-8.823-8.986-26.144-12.091
	c-22.386-3.922-33.824-13.563-33.987-28.922c0-21.078,17.157-31.046,40.359-31.536c13.072,0,23.366,2.778,30.883,8.333
	c7.516,5.72,11.438,13.726,12.091,23.856h-16.013c-5.883-0.163-9.804-2.287-11.274-6.046c-1.634-4.248-6.863-6.699-15.359-6.699
	c-9.968,0-14.869,2.614-14.869,7.517c0,5.065,6.535,8.823,19.607,11.274c17.157,3.268,28.432,7.517,33.987,12.582
	c4.738,4.738,7.025,10.784,7.025,17.32c0,24.02-19.444,33.006-46.241,33.006c-14.216,0-24.837-2.94-31.699-8.66
	c-7.68-5.555-11.438-14.052-11.438-25.326h25.98C336.438,538.563,344.444,542.157,356.862,542.157z"/>
<path fill="none" stroke="#FFFFFF" stroke-width="6.9999" stroke-miterlimit="2.6131" d="M356.862,542.157
	c10.621,0,16.014-2.941,16.014-9.314c0-5.065-8.823-8.986-26.144-12.091c-22.386-3.922-33.824-13.563-33.987-28.922
	c0-21.078,17.157-31.046,40.359-31.536c13.072,0,23.366,2.778,30.883,8.333c7.516,5.72,11.438,13.726,12.091,23.856h-16.013
	c-5.883-0.163-9.804-2.287-11.274-6.046c-1.634-4.248-6.863-6.699-15.359-6.699c-9.968,0-14.869,2.614-14.869,7.517
	c0,5.065,6.535,8.823,19.607,11.274c17.157,3.268,28.432,7.517,33.987,12.582c4.738,4.738,7.025,10.784,7.025,17.32
	c0,24.02-19.444,33.006-46.241,33.006c-14.216,0-24.837-2.94-31.699-8.66c-7.68-5.555-11.438-14.052-11.438-25.326h25.98
	C336.438,538.563,344.444,542.157,356.862,542.157z"/>
<path fill="#FFFFFF" d="M417.974,573.366c14.216,0,19.281-6.536,15.196-19.118l-35.131-93.627h29.412l20.425,66.503l17.974-57.843
	c1.634-5.556,5.719-8.497,12.255-8.497h18.138l-40.687,112.092c-6.209,15.687-12.418,21.241-33.987,21.241
	c-6.699,0-10.131-0.163-10.947-0.653v-19.771h7.353V573.366z"/>
<path fill="none" stroke="#FFFFFF" stroke-width="6.9999" stroke-miterlimit="2.6131" d="M417.974,573.366
	c14.216,0,19.281-6.536,15.196-19.118l-35.131-93.627h29.412l20.425,66.503l17.974-57.843c1.634-5.556,5.719-8.497,12.255-8.497
	h18.138l-40.687,112.092c-6.209,15.687-12.418,21.241-33.987,21.241c-6.699,0-10.131-0.163-10.947-0.653v-19.771h7.353V573.366z"/>
<path fill="#FFFFFF" d="M614.869,494.117c13.235,0.164,19.935-5.882,19.935-18.137s-6.209-18.301-18.627-18.301h-26.961v36.438
	H614.869L614.869,494.117z M621.405,516.83h-32.517v44.935h-26.307V449.347c0-7.189,5.882-13.563,13.235-13.563h43.79
	c27.288,0,41.504,14.216,41.504,40.523C660.947,501.144,647.223,516.83,621.405,516.83z"/>
<path fill="none" stroke="#FFFFFF" stroke-width="6.9999" stroke-miterlimit="2.6131" d="M614.869,494.117
	c13.235,0.164,19.935-5.882,19.935-18.137s-6.209-18.301-18.627-18.301h-26.961v36.438H614.869L614.869,494.117z M621.405,516.83
	h-32.517v44.935h-26.307V449.347c0-7.189,5.882-13.563,13.235-13.563h43.79c27.288,0,41.504,14.216,41.504,40.523
	C660.947,501.144,647.223,516.83,621.405,516.83z"/>
<path fill="#FFFFFF" d="M727.777,519.607v-8.986c-5.882,2.451-12.581,4.411-19.935,5.882c-9.967,1.798-15.032,6.536-15.032,13.726
	c0.49,7.844,4.738,11.438,12.582,11.438C719.281,541.667,727.777,533.497,727.777,519.607L727.777,519.607z M696.078,487.418h-25
	c3.104-18.137,16.014-26.961,39.053-26.961c27.451,0,41.503,8.824,41.993,26.961v33.334c0,26.961-16.667,39.052-43.464,40.85
	c-23.856,1.797-40.522-8.987-40.522-30.719c0.49-23.53,17.974-29.739,43.137-32.19c10.784-1.307,16.177-4.411,16.177-9.804
	c-0.49-5.556-5.883-8.333-16.177-8.333C702.287,480.719,697.386,482.843,696.078,487.418z"/>
<path fill="none" stroke="#FFFFFF" stroke-width="6.9999" stroke-miterlimit="2.6131" d="M727.777,519.607v-8.986
	c-5.882,2.451-12.581,4.411-19.935,5.882c-9.967,1.798-15.032,6.536-15.032,13.726c0.49,7.844,4.738,11.438,12.582,11.438
	C719.281,541.667,727.777,533.497,727.777,519.607L727.777,519.607z M696.078,487.418h-25c3.104-18.137,16.014-26.961,39.053-26.961
	c27.451,0,41.503,8.824,41.993,26.961v33.334c0,26.961-16.667,39.052-43.464,40.85c-23.856,1.797-40.522-8.987-40.522-30.719
	c0.49-23.53,17.974-29.739,43.137-32.19c10.784-1.307,16.177-4.411,16.177-9.804c-0.49-5.556-5.883-8.333-16.177-8.333
	C702.287,480.719,697.386,482.843,696.078,487.418z"/>
<path fill="#FFFFFF" d="M777.777,573.366c14.053,0,18.955-6.536,15.033-19.118l-34.641-93.627h28.922l20.098,66.503l17.647-57.843
	c1.471-5.556,5.556-8.497,12.091-8.497h17.811l-40.032,112.092c-6.209,15.687-12.255,21.241-33.333,21.241
	c-6.536,0-9.968-0.163-10.785-0.653v-19.771h7.189V573.366z"/>
<path fill="none" stroke="#FFFFFF" stroke-width="6.9999" stroke-miterlimit="2.6131" d="M777.777,573.366
	c14.053,0,18.955-6.536,15.033-19.118l-34.641-93.627h28.922l20.098,66.503l17.647-57.843c1.471-5.556,5.556-8.497,12.091-8.497
	h17.811l-40.032,112.092c-6.209,15.687-12.255,21.241-33.333,21.241c-6.536,0-9.968-0.163-10.785-0.653v-19.771h7.189V573.366z"/>
<path fill="#003871" d="M482.843,623.039H78.268V443.464c0-23.039,19.771-36.111,35.294-36.111h430.555L482.843,623.039z"/>
<path fill="#ED2128" d="M544.281,407.353l-61.438,215.687h308.66c30.72,0,49.184-0.98,62.582-41.177l57.353-174.51H544.281
	L544.281,407.353z"/>
<path fill="#FFFFFF" d="M112.909,449.183c0-8.66,4.412-13.235,13.398-13.562h80.392v21.731h-67.811v26.961h50.49v8.334
	c0.164,8.66-4.412,12.908-13.725,12.908h-36.765v32.517h67.484v23.039h-93.464V449.183z"/>
<path fill="#FFFFFF" d="M276.961,519.607v-8.986c-5.882,2.451-12.745,4.411-20.098,5.882c-9.967,1.798-15.196,6.536-15.196,13.726
	c0.49,7.68,4.739,11.438,12.745,11.438C268.301,541.667,276.961,533.497,276.961,519.607L276.961,519.607z M245.098,487.582h-25.164
	c3.104-18.138,16.177-26.961,39.216-26.961c27.614,0,41.667,8.823,42.32,26.961v33.17c0,26.961-16.667,39.052-43.791,40.85
	c-24.02,1.797-40.686-8.987-40.686-30.719c0.49-23.53,17.974-29.739,43.464-32.19c10.784-1.307,16.34-4.411,16.34-9.804
	c-0.49-5.556-5.882-8.333-16.34-8.333C251.307,480.719,246.405,482.843,245.098,487.582z"/>
<path fill="#FFFFFF" d="M356.862,542.157c10.621,0,16.014-2.941,16.014-9.314c0-5.065-8.823-8.986-26.144-12.091
	c-22.386-3.922-33.824-13.563-33.987-28.922c0-21.078,17.157-31.046,40.359-31.536c13.072,0,23.366,2.778,30.883,8.333
	c7.516,5.72,11.438,13.726,12.091,23.856h-16.013c-5.883-0.163-9.804-2.287-11.274-6.046c-1.634-4.248-6.863-6.699-15.359-6.699
	c-9.968,0-14.869,2.614-14.869,7.517c0,5.065,6.535,8.823,19.607,11.274c17.157,3.268,28.432,7.517,33.987,12.582
	c4.738,4.738,7.025,10.784,7.025,17.32c0,24.02-19.444,33.006-46.241,33.006c-14.216,0-24.837-2.94-31.699-8.66
	c-7.68-5.555-11.438-14.052-11.438-25.326h25.98C336.438,538.563,344.444,542.157,356.862,542.157z"/>
<path fill="#FFFFFF" d="M417.974,573.366c14.216,0,19.281-6.536,15.196-19.118l-35.131-93.627h29.412l20.425,66.503l17.974-57.843
	c1.634-5.556,5.719-8.497,12.255-8.497h18.138l-40.687,112.092c-6.209,15.687-12.418,21.241-33.987,21.241
	c-6.699,0-10.131-0.163-10.947-0.653v-19.771h7.353V573.366z"/>
<path fill="#FFFFFF" d="M614.869,494.117c13.235,0.164,19.935-5.882,19.935-18.137s-6.209-18.301-18.627-18.301h-26.961v36.438
	H614.869L614.869,494.117z M621.405,516.83h-32.517v44.935h-26.307V449.347c0-7.189,5.882-13.563,13.235-13.563h43.79
	c27.288,0,41.504,14.216,41.504,40.523C660.947,501.144,647.223,516.83,621.405,516.83z"/>
<path fill="#FFFFFF" d="M727.777,519.607v-8.986c-5.882,2.451-12.581,4.411-19.935,5.882c-9.967,1.798-15.032,6.536-15.032,13.726
	c0.49,7.844,4.738,11.438,12.582,11.438C719.281,541.667,727.777,533.497,727.777,519.607L727.777,519.607z M696.078,487.418h-25
	c3.104-18.137,16.014-26.961,39.053-26.961c27.451,0,41.503,8.824,41.993,26.961v33.334c0,26.961-16.667,39.052-43.464,40.85
	c-23.856,1.797-40.522-8.987-40.522-30.719c0.49-23.53,17.974-29.739,43.137-32.19c10.784-1.307,16.177-4.411,16.177-9.804
	c-0.49-5.556-5.883-8.333-16.177-8.333C702.287,480.719,697.386,482.843,696.078,487.418z"/>
<path fill="#FFFFFF" d="M777.777,573.366c14.053,0,18.955-6.536,15.033-19.118l-34.641-93.627h28.922l20.098,66.503l17.647-57.843
	c1.471-5.556,5.556-8.497,12.091-8.497h17.811l-40.032,112.092c-6.209,15.687-12.255,21.241-33.333,21.241
	c-6.536,0-9.968-0.163-10.785-0.653v-19.771h7.189V573.366z"/>
</svg>
